<svg xmlns="http://www.w3.org/2000/svg" xmlns:xlink="http://www.w3.org/1999/xlink" width="1200" zoomAndPan="magnify" viewBox="0 0 900 374.999991" height="500" preserveAspectRatio="xMidYMid meet" version="1.0"><defs><g/></defs><g fill="#2b2b2b" fill-opacity="1"><g transform="translate(92.345532, 263.616208)"><g><path d="M 11.8125 0 L 58.558594 0 L 58.558594 -3.519531 C 50.265625 -6.285156 48.507812 -13.824219 48.507812 -31.917969 L 48.507812 -79.167969 L 62.832031 -94 L 67.355469 -94 C 89.976562 -94 92.492188 -80.175781 108.324219 -41.21875 C 123.402344 -4.273438 126.167969 1.757812 147.03125 1.757812 C 152.308594 1.757812 158.339844 1.507812 164.121094 0 L 164.121094 -3.769531 C 162.613281 -3.519531 161.605469 -3.519531 160.351562 -3.519531 C 152.308594 -3.519531 148.789062 -9.550781 133.960938 -47.753906 C 118.378906 -87.714844 111.089844 -100.53125 73.390625 -98.523438 L 67.105469 -98.269531 L 120.640625 -153.0625 C 133.457031 -166.128906 145.019531 -169.648438 155.070312 -172.414062 L 155.070312 -175.933594 L 115.613281 -175.933594 L 115.613281 -173.417969 C 126.421875 -171.660156 125.667969 -163.867188 109.582031 -147.53125 L 48.507812 -84.949219 L 48.507812 -144.011719 C 48.507812 -162.109375 50.265625 -169.648438 58.558594 -172.414062 L 58.558594 -175.933594 L 11.8125 -175.933594 L 11.8125 -172.414062 C 20.105469 -169.648438 21.867188 -162.109375 21.867188 -144.011719 L 21.867188 -31.917969 C 21.867188 -13.824219 20.105469 -6.285156 11.8125 -3.519531 Z M 11.8125 0 "/></g></g></g><g fill="#2b2b2b" fill-opacity="1"><g transform="translate(254.454676, 263.616208)"><g><path d="M 103.550781 2.511719 C 145.773438 2.511719 193.273438 -25.886719 193.273438 -87.210938 C 193.273438 -148.789062 146.023438 -177.945312 103.550781 -177.945312 C 50.265625 -177.945312 13.570312 -138.484375 13.570312 -88.71875 C 13.570312 -25.636719 60.824219 2.511719 103.550781 2.511719 Z M 39.710938 -104.050781 C 36.945312 -144.765625 56.296875 -171.410156 90.480469 -171.410156 C 133.960938 -171.410156 164.121094 -120.890625 167.890625 -67.355469 C 170.152344 -34.179688 156.328125 -5.277344 117.875 -5.277344 C 75.148438 -5.277344 43.230469 -53.785156 39.710938 -104.050781 Z M 39.710938 -104.050781 "/></g></g></g><g fill="#2b2b2b" fill-opacity="1"><g transform="translate(460.546915, 263.616208)"><g><path d="M 11.8125 0 L 58.558594 0 L 58.558594 -3.519531 C 50.265625 -6.285156 48.507812 -13.824219 48.507812 -31.917969 L 48.507812 -94 L 68.863281 -94 C 99.527344 -94 108.324219 -87.964844 112.34375 -74.898438 L 115.863281 -74.898438 L 115.863281 -117.625 L 112.34375 -117.625 C 108.324219 -104.554688 99.527344 -98.523438 68.863281 -98.523438 L 48.507812 -98.523438 L 48.507812 -171.410156 L 86.207031 -171.410156 C 111.089844 -171.410156 122.398438 -164.875 131.699219 -147.28125 L 134.964844 -148.035156 L 133.207031 -175.933594 L 11.8125 -175.933594 L 11.8125 -172.414062 C 20.105469 -169.648438 21.867188 -162.109375 21.867188 -144.011719 L 21.867188 -31.917969 C 21.867188 -13.824219 20.105469 -6.285156 11.8125 -3.519531 Z M 11.8125 0 "/></g></g></g><g fill="#2b2b2b" fill-opacity="1"><g transform="translate(601.544228, 263.616208)"><g><path d="M 103.550781 2.511719 C 145.773438 2.511719 193.273438 -25.886719 193.273438 -87.210938 C 193.273438 -148.789062 146.023438 -177.945312 103.550781 -177.945312 C 50.265625 -177.945312 13.570312 -138.484375 13.570312 -88.71875 C 13.570312 -25.636719 60.824219 2.511719 103.550781 2.511719 Z M 39.710938 -104.050781 C 36.945312 -144.765625 56.296875 -171.410156 90.480469 -171.410156 C 133.960938 -171.410156 164.121094 -120.890625 167.890625 -67.355469 C 170.152344 -34.179688 156.328125 -5.277344 117.875 -5.277344 C 75.148438 -5.277344 43.230469 -53.785156 39.710938 -104.050781 Z M 39.710938 -104.050781 "/></g></g></g></svg>