<svg xmlns="http://www.w3.org/2000/svg" xmlns:xlink="http://www.w3.org/1999/xlink" width="500" zoomAndPan="magnify" viewBox="0 0 375 374.999991" height="500" preserveAspectRatio="xMidYMid meet" version="1.0"><defs><g/></defs><rect x="-37.5" width="450" fill="#ffffff" y="-37.499999" height="449.999989" fill-opacity="1"/><rect x="-37.5" width="450" fill="#f4f4f4" y="-37.499999" height="449.999989" fill-opacity="1"/><rect x="-37.5" width="450" fill="#ffffff" y="-37.499999" height="449.999989" fill-opacity="1"/><rect x="-37.5" width="450" fill="#f4f4f4" y="-37.499999" height="449.999989" fill-opacity="1"/><g fill="#2b2b2b" fill-opacity="1"><g transform="translate(171.141888, 280.970373)"><g><path d="M 10.011719 0 L 41.820312 0 L 41.820312 -2.550781 C 35.734375 -4.320312 33.96875 -8.835938 33.96875 -24.9375 L 33.96875 -73.628906 L 57.332031 -73.628906 C 79.714844 -73.628906 85.214844 -68.917969 87.765625 -60.082031 L 90.121094 -60.082031 L 90.121094 -89.925781 L 87.765625 -89.925781 C 85.214844 -81.285156 79.714844 -76.574219 57.332031 -76.769531 L 33.96875 -76.769531 L 33.96875 -134.300781 L 68.71875 -134.300781 C 87.175781 -134.300781 95.421875 -129.390625 102.097656 -116.234375 L 104.257812 -116.824219 L 102.492188 -137.441406 L 10.011719 -137.441406 L 10.011719 -134.890625 C 15.902344 -133.121094 17.867188 -128.605469 17.867188 -112.503906 L 17.867188 -24.9375 C 17.867188 -8.835938 15.902344 -4.320312 10.011719 -2.550781 Z M 10.011719 0 "/></g></g></g><g fill="#2b2b2b" fill-opacity="1"><g transform="translate(90.655065, 226.909948)"><g><path d="M 10.011719 0 L 41.820312 0 L 41.820312 -2.550781 C 35.734375 -4.320312 33.96875 -8.835938 33.96875 -24.9375 L 33.96875 -58.707031 L 48.496094 -73.628906 L 52.425781 -73.628906 C 72.253906 -74.21875 75.199219 -62.242188 88.160156 -30.433594 C 97.582031 -7.460938 101.117188 0.980469 115.449219 0.980469 C 119.574219 0.980469 123.894531 0.589844 127.230469 -0.394531 L 127.230469 -2.945312 C 126.054688 -2.75 125.070312 -2.75 123.894531 -2.75 C 117.609375 -2.75 113.289062 -9.621094 103.277344 -34.753906 C 89.925781 -68.328125 85.410156 -78.929688 56.15625 -76.96875 L 51.640625 -76.769531 L 93.460938 -119.574219 C 104.652344 -131.160156 112.898438 -133.121094 119.179688 -134.890625 L 119.179688 -137.441406 L 91.890625 -137.441406 L 91.890625 -135.675781 C 99.546875 -134.496094 97.78125 -128.015625 85.410156 -115.253906 L 33.96875 -62.632812 L 33.96875 -112.503906 C 33.96875 -128.605469 35.734375 -133.121094 41.820312 -134.890625 L 41.820312 -137.441406 L 10.011719 -137.441406 L 10.011719 -134.890625 C 15.902344 -133.121094 17.867188 -128.605469 17.867188 -112.503906 L 17.867188 -24.9375 C 17.867188 -8.835938 15.902344 -4.320312 10.011719 -2.550781 Z M 10.011719 0 "/></g></g></g><path fill="#f4f4f4" d="M 93.921875 199.257812 L 280.953125 199.257812 L 280.953125 228.363281 L 93.921875 228.363281 L 93.921875 199.257812 " fill-opacity="1" fill-rule="nonzero"/><g fill="#2b2b2b" fill-opacity="1"><g transform="translate(103.650122, 219.810382)"><g><path d="M 1.03125 0 L 4.3125 0 L 4.3125 -0.261719 C 3.683594 -0.445312 3.503906 -0.910156 3.503906 -2.570312 L 3.503906 -6.054688 L 5 -7.59375 L 5.40625 -7.59375 C 7.453125 -7.65625 7.753906 -6.417969 9.09375 -3.140625 C 10.0625 -0.769531 10.429688 0.101562 11.90625 0.101562 C 12.332031 0.101562 12.777344 0.0625 13.121094 -0.0390625 L 13.121094 -0.304688 C 13 -0.285156 12.898438 -0.285156 12.777344 -0.285156 C 12.128906 -0.285156 11.683594 -0.992188 10.652344 -3.585938 C 9.273438 -7.046875 8.808594 -8.140625 5.792969 -7.9375 L 5.324219 -7.917969 L 9.640625 -12.332031 C 10.792969 -13.527344 11.644531 -13.730469 12.292969 -13.910156 L 12.292969 -14.175781 L 9.476562 -14.175781 L 9.476562 -13.992188 C 10.265625 -13.871094 10.085938 -13.203125 8.808594 -11.886719 L 3.503906 -6.460938 L 3.503906 -11.601562 C 3.503906 -13.265625 3.683594 -13.730469 4.3125 -13.910156 L 4.3125 -14.175781 L 1.03125 -14.175781 L 1.03125 -13.910156 C 1.640625 -13.730469 1.84375 -13.265625 1.84375 -11.601562 L 1.84375 -2.570312 C 1.84375 -0.910156 1.640625 -0.445312 1.03125 -0.261719 Z M 1.03125 0 "/></g></g></g><g fill="#2b2b2b" fill-opacity="1"><g transform="translate(119.79043, 219.810382)"><g><path d="M 8.261719 0.203125 C 11.664062 0.203125 15.429688 -2.023438 15.429688 -7.027344 C 15.429688 -11.988281 11.683594 -14.335938 8.261719 -14.335938 C 3.96875 -14.335938 1.054688 -11.257812 1.054688 -7.109375 C 1.054688 -2.085938 4.820312 0.203125 8.261719 0.203125 Z M 2.671875 -8.28125 C 2.550781 -11.582031 4.355469 -13.871094 7.433594 -13.871094 C 11.054688 -13.871094 13.710938 -9.921875 13.851562 -5.691406 C 13.953125 -2.652344 12.351562 -0.304688 9.113281 -0.304688 C 5.488281 -0.304688 2.816406 -4.210938 2.671875 -8.28125 Z M 2.671875 -8.28125 "/></g></g></g><g fill="#2b2b2b" fill-opacity="1"><g transform="translate(139.43398, 219.810382)"><g><path d="M 1.03125 0 L 4.3125 0 L 4.3125 -0.261719 C 3.683594 -0.445312 3.503906 -0.910156 3.503906 -2.570312 L 3.503906 -7.59375 L 5.914062 -7.59375 C 8.222656 -7.59375 8.789062 -7.109375 9.050781 -6.195312 L 9.292969 -6.195312 L 9.292969 -9.273438 L 9.050781 -9.273438 C 8.789062 -8.382812 8.222656 -7.898438 5.914062 -7.917969 L 3.503906 -7.917969 L 3.503906 -13.851562 L 7.085938 -13.851562 C 8.992188 -13.851562 9.839844 -13.34375 10.53125 -11.988281 L 10.753906 -12.046875 L 10.570312 -14.175781 L 1.03125 -14.175781 L 1.03125 -13.910156 C 1.640625 -13.730469 1.84375 -13.265625 1.84375 -11.601562 L 1.84375 -2.570312 C 1.84375 -0.910156 1.640625 -0.445312 1.03125 -0.261719 Z M 1.03125 0 "/></g></g></g><g fill="#2b2b2b" fill-opacity="1"><g transform="translate(153.934039, 219.810382)"><g><path d="M 8.261719 0.203125 C 11.664062 0.203125 15.429688 -2.023438 15.429688 -7.027344 C 15.429688 -11.988281 11.683594 -14.335938 8.261719 -14.335938 C 3.96875 -14.335938 1.054688 -11.257812 1.054688 -7.109375 C 1.054688 -2.085938 4.820312 0.203125 8.261719 0.203125 Z M 2.671875 -8.28125 C 2.550781 -11.582031 4.355469 -13.871094 7.433594 -13.871094 C 11.054688 -13.871094 13.710938 -9.921875 13.851562 -5.691406 C 13.953125 -2.652344 12.351562 -0.304688 9.113281 -0.304688 C 5.488281 -0.304688 2.816406 -4.210938 2.671875 -8.28125 Z M 2.671875 -8.28125 "/></g></g></g><g fill="#2b2b2b" fill-opacity="1"><g transform="translate(173.577592, 219.810382)"><g/></g></g><g fill="#2b2b2b" fill-opacity="1"><g transform="translate(181.010414, 219.810382)"><g><path d="M 5.769531 0.203125 C 8.160156 0.203125 10.507812 -1.335938 10.507812 -3.867188 C 10.507812 -6.15625 8.402344 -7.046875 6.15625 -7.9375 C 4.433594 -8.648438 2.347656 -9.417969 2.347656 -11.320312 C 2.347656 -13.039062 3.746094 -13.992188 5.386719 -13.992188 C 7.695312 -13.992188 9.113281 -12.738281 9.863281 -10.976562 L 10.0625 -11.035156 L 9.984375 -13.386719 C 9.195312 -13.808594 7.878906 -14.316406 6.035156 -14.316406 C 3.058594 -14.316406 1.09375 -12.816406 1.09375 -10.449219 C 1.09375 -8.300781 2.613281 -7.453125 5 -6.5 C 6.703125 -5.8125 9.195312 -4.878906 9.195312 -2.855469 C 9.195312 -1.214844 7.796875 -0.160156 6.175781 -0.160156 C 3.363281 -0.160156 1.824219 -1.964844 1.03125 -4.089844 L 0.808594 -4.050781 L 0.910156 -1.234375 C 1.863281 -0.546875 3.644531 0.203125 5.769531 0.203125 Z M 5.769531 0.203125 "/></g></g></g><g fill="#2b2b2b" fill-opacity="1"><g transform="translate(195.348475, 219.810382)"><g><path d="M 4.03125 0 L 7.332031 0 L 7.332031 -0.261719 C 6.703125 -0.445312 6.519531 -0.910156 6.519531 -2.570312 L 6.519531 -13.851562 L 7.472656 -13.851562 C 9.292969 -13.851562 10.085938 -13.363281 10.773438 -11.90625 L 10.996094 -11.949219 L 10.875 -14.175781 L 0.445312 -14.175781 L 0.324219 -11.949219 L 0.546875 -11.90625 C 1.234375 -13.363281 2.023438 -13.851562 3.847656 -13.851562 L 4.839844 -13.851562 L 4.839844 -2.570312 C 4.839844 -0.910156 4.65625 -0.445312 4.03125 -0.261719 Z M 4.03125 0 "/></g></g></g><g fill="#2b2b2b" fill-opacity="1"><g transform="translate(209.868796, 219.810382)"><g><path d="M 8.261719 0.203125 C 11.664062 0.203125 15.429688 -2.023438 15.429688 -7.027344 C 15.429688 -11.988281 11.683594 -14.335938 8.261719 -14.335938 C 3.96875 -14.335938 1.054688 -11.257812 1.054688 -7.109375 C 1.054688 -2.085938 4.820312 0.203125 8.261719 0.203125 Z M 2.671875 -8.28125 C 2.550781 -11.582031 4.355469 -13.871094 7.433594 -13.871094 C 11.054688 -13.871094 13.710938 -9.921875 13.851562 -5.691406 C 13.953125 -2.652344 12.351562 -0.304688 9.113281 -0.304688 C 5.488281 -0.304688 2.816406 -4.210938 2.671875 -8.28125 Z M 2.671875 -8.28125 "/></g></g></g><g fill="#2b2b2b" fill-opacity="1"><g transform="translate(229.512349, 219.810382)"><g><path d="M 11.339844 0.140625 C 11.746094 0.140625 12.273438 0.101562 12.574219 0 L 12.574219 -0.242188 C 12.472656 -0.222656 12.371094 -0.222656 12.25 -0.222656 C 11.5625 -0.222656 11.15625 -0.890625 10.1875 -3.320312 C 9.214844 -5.8125 8.828125 -7.046875 6.339844 -7.371094 C 8.972656 -7.675781 10.347656 -9.113281 10.347656 -11.015625 C 10.347656 -12.816406 9.132812 -14.175781 5.023438 -14.175781 L 1.03125 -14.175781 L 1.03125 -13.910156 C 1.660156 -13.730469 1.84375 -13.265625 1.84375 -11.601562 L 1.84375 -2.570312 C 1.84375 -0.910156 1.660156 -0.445312 1.03125 -0.261719 L 1.03125 0 L 4.3125 0 L 4.3125 -0.261719 C 3.683594 -0.445312 3.503906 -0.910156 3.503906 -2.570312 L 3.503906 -7.308594 L 4.800781 -7.308594 C 7.230469 -7.308594 7.390625 -5.894531 8.566406 -3.097656 C 9.457031 -0.992188 9.78125 0.140625 11.339844 0.140625 Z M 3.503906 -7.613281 L 3.503906 -13.832031 C 3.828125 -13.851562 4.152344 -13.871094 4.453125 -13.871094 C 7.453125 -13.871094 8.625 -12.351562 8.625 -10.550781 C 8.625 -8.828125 7.53125 -7.613281 5.203125 -7.613281 Z M 3.503906 -7.613281 "/></g></g></g><g fill="#2b2b2b" fill-opacity="1"><g transform="translate(245.085663, 219.810382)"><g><path d="M 1.03125 0 L 11.015625 0 L 11.179688 -2.691406 L 10.957031 -2.734375 C 10.226562 -0.851562 8.992188 -0.304688 7.046875 -0.304688 L 4.414062 -0.304688 C 3.828125 -0.304688 3.503906 -0.628906 3.503906 -1.214844 L 3.503906 -7.433594 L 6.09375 -7.433594 C 8.402344 -7.433594 8.992188 -6.964844 9.234375 -6.054688 L 9.476562 -6.054688 L 9.476562 -9.113281 L 9.234375 -9.113281 C 8.992188 -8.203125 8.402344 -7.734375 6.09375 -7.734375 L 3.503906 -7.734375 L 3.503906 -13.871094 L 6.480469 -13.871094 C 8.546875 -13.871094 9.742188 -13.265625 10.449219 -11.480469 L 10.671875 -11.542969 L 10.449219 -14.175781 L 1.03125 -14.175781 L 1.03125 -13.910156 C 1.640625 -13.730469 1.84375 -13.265625 1.84375 -11.601562 L 1.84375 -2.570312 C 1.84375 -0.910156 1.640625 -0.445312 1.03125 -0.261719 Z M 1.03125 0 "/></g></g></g><g fill="#2b2b2b" fill-opacity="1"><g transform="translate(260.193224, 219.810382)"><g><path d="M 5.769531 0.203125 C 8.160156 0.203125 10.507812 -1.335938 10.507812 -3.867188 C 10.507812 -6.15625 8.402344 -7.046875 6.15625 -7.9375 C 4.433594 -8.648438 2.347656 -9.417969 2.347656 -11.320312 C 2.347656 -13.039062 3.746094 -13.992188 5.386719 -13.992188 C 7.695312 -13.992188 9.113281 -12.738281 9.863281 -10.976562 L 10.0625 -11.035156 L 9.984375 -13.386719 C 9.195312 -13.808594 7.878906 -14.316406 6.035156 -14.316406 C 3.058594 -14.316406 1.09375 -12.816406 1.09375 -10.449219 C 1.09375 -8.300781 2.613281 -7.453125 5 -6.5 C 6.703125 -5.8125 9.195312 -4.878906 9.195312 -2.855469 C 9.195312 -1.214844 7.796875 -0.160156 6.175781 -0.160156 C 3.363281 -0.160156 1.824219 -1.964844 1.03125 -4.089844 L 0.808594 -4.050781 L 0.910156 -1.234375 C 1.863281 -0.546875 3.644531 0.203125 5.769531 0.203125 Z M 5.769531 0.203125 "/></g></g></g></svg>