<svg xmlns="http://www.w3.org/2000/svg" xmlns:xlink="http://www.w3.org/1999/xlink" width="1200" zoomAndPan="magnify" viewBox="0 0 900 374.999991" height="500" preserveAspectRatio="xMidYMid meet" version="1.0"><defs><g/></defs><g fill="#2b2b2b" fill-opacity="1"><g transform="translate(0.0000108, 317.617704)"><g><path d="M 14.632812 0 L 72.535156 0 L 72.535156 -4.359375 C 62.261719 -7.78125 60.085938 -17.121094 60.085938 -39.539062 L 60.085938 -98.066406 L 77.828125 -116.433594 L 83.433594 -116.433594 C 111.453125 -116.433594 114.566406 -99.308594 134.179688 -51.054688 C 152.855469 -5.292969 156.28125 2.179688 182.121094 2.179688 C 188.660156 2.179688 196.128906 1.867188 203.289062 0 L 203.289062 -4.667969 C 201.421875 -4.359375 200.175781 -4.359375 198.621094 -4.359375 C 188.660156 -4.359375 184.300781 -11.828125 165.933594 -59.148438 C 146.628906 -108.648438 137.601562 -124.527344 90.90625 -122.035156 L 83.121094 -121.726562 L 149.433594 -189.59375 C 165.308594 -205.78125 179.628906 -210.140625 192.082031 -213.5625 L 192.082031 -217.921875 L 143.207031 -217.921875 L 143.207031 -214.808594 C 156.59375 -212.628906 155.660156 -202.980469 135.734375 -182.742188 L 60.085938 -105.226562 L 60.085938 -178.386719 C 60.085938 -200.800781 62.261719 -210.140625 72.535156 -213.5625 L 72.535156 -217.921875 L 14.632812 -217.921875 L 14.632812 -213.5625 C 24.90625 -210.140625 27.085938 -200.800781 27.085938 -178.386719 L 27.085938 -39.539062 C 27.085938 -17.121094 24.90625 -7.78125 14.632812 -4.359375 Z M 14.632812 0 "/></g></g></g><g fill="#2b2b2b" fill-opacity="1"><g transform="translate(200.799403, 317.617704)"><g><path d="M 128.261719 3.113281 C 180.5625 3.113281 239.402344 -32.066406 239.402344 -108.027344 C 239.402344 -184.300781 180.875 -220.414062 128.261719 -220.414062 C 62.261719 -220.414062 16.8125 -171.535156 16.8125 -109.894531 C 16.8125 -31.753906 75.339844 3.113281 128.261719 3.113281 Z M 49.1875 -128.886719 C 45.761719 -179.320312 69.734375 -212.320312 112.074219 -212.320312 C 165.933594 -212.320312 203.289062 -149.742188 207.960938 -83.433594 C 210.761719 -42.339844 193.640625 -6.539062 146.007812 -6.539062 C 93.082031 -6.539062 53.546875 -66.621094 49.1875 -128.886719 Z M 49.1875 -128.886719 "/></g></g></g><g fill="#2b2b2b" fill-opacity="1"><g transform="translate(456.079263, 317.617704)"><g><path d="M 14.632812 0 L 72.535156 0 L 72.535156 -4.359375 C 62.261719 -7.78125 60.085938 -17.121094 60.085938 -39.539062 L 60.085938 -116.433594 L 85.300781 -116.433594 C 123.28125 -116.433594 134.179688 -108.960938 139.160156 -92.773438 L 143.515625 -92.773438 L 143.515625 -145.695312 L 139.160156 -145.695312 C 134.179688 -129.507812 123.28125 -122.035156 85.300781 -122.035156 L 60.085938 -122.035156 L 60.085938 -212.320312 L 106.78125 -212.320312 C 137.601562 -212.320312 151.613281 -204.222656 163.128906 -182.433594 L 167.175781 -183.367188 L 165 -217.921875 L 14.632812 -217.921875 L 14.632812 -213.5625 C 24.90625 -210.140625 27.085938 -200.800781 27.085938 -178.386719 L 27.085938 -39.539062 C 27.085938 -17.121094 24.90625 -7.78125 14.632812 -4.359375 Z M 14.632812 0 "/></g></g></g><g fill="#2b2b2b" fill-opacity="1"><g transform="translate(630.728084, 317.617704)"><g><path d="M 128.261719 3.113281 C 180.5625 3.113281 239.402344 -32.066406 239.402344 -108.027344 C 239.402344 -184.300781 180.875 -220.414062 128.261719 -220.414062 C 62.261719 -220.414062 16.8125 -171.535156 16.8125 -109.894531 C 16.8125 -31.753906 75.339844 3.113281 128.261719 3.113281 Z M 49.1875 -128.886719 C 45.761719 -179.320312 69.734375 -212.320312 112.074219 -212.320312 C 165.933594 -212.320312 203.289062 -149.742188 207.960938 -83.433594 C 210.761719 -42.339844 193.640625 -6.539062 146.007812 -6.539062 C 93.082031 -6.539062 53.546875 -66.621094 49.1875 -128.886719 Z M 49.1875 -128.886719 "/></g></g></g></svg>