<svg xmlns="http://www.w3.org/2000/svg" xmlns:xlink="http://www.w3.org/1999/xlink" width="1200" zoomAndPan="magnify" viewBox="0 0 900 374.999991" height="500" preserveAspectRatio="xMidYMid meet" version="1.0"><defs><g/></defs><g fill="#2b2b2b" fill-opacity="1"><g transform="translate(0.0000108, 349.702166)"><g><path d="M 194.960938 -56.582031 C 175.5625 -72.421875 156.164062 -87.941406 136.441406 -103.785156 C 127.386719 -110.898438 118.335938 -118.011719 109.28125 -125.445312 C 107.988281 -126.417969 107.019531 -127.386719 105.402344 -128.679688 L 99.90625 -133.53125 L 109.605469 -141.9375 C 114.453125 -145.816406 118.65625 -149.371094 123.183594 -152.929688 C 130.296875 -158.425781 137.085938 -163.921875 143.875 -169.417969 C 157.132812 -179.765625 171.035156 -190.433594 184.289062 -201.75 C 195.929688 -211.449219 198.515625 -225.675781 190.433594 -235.699219 C 182.675781 -245.722656 169.09375 -246.367188 155.515625 -237.316406 L 154.867188 -236.992188 C 154.222656 -236.34375 153.253906 -236.023438 152.605469 -235.375 L 69.511719 -160.042969 C 68.542969 -159.394531 67.574219 -158.75 66.28125 -157.777344 L 59.492188 -152.929688 L 58.84375 -158.75 C 58.195312 -161.980469 57.875 -164.890625 57.875 -167.800781 C 57.226562 -173.621094 56.582031 -179.117188 55.933594 -184.289062 L 54.640625 -192.375 C 53.023438 -202.71875 51.730469 -213.710938 49.144531 -224.058594 C 47.203125 -232.140625 41.382812 -236.992188 33.300781 -236.992188 C 25.21875 -237.316406 19.398438 -232.789062 16.488281 -223.734375 C 14.550781 -217.269531 13.257812 -211.773438 13.257812 -206.921875 L 13.257812 -203.691406 C 12.609375 -153.574219 11.640625 -101.84375 11.960938 -51.085938 C 11.960938 -42.03125 13.902344 -32.007812 18.105469 -21.015625 C 21.664062 -11.640625 31.363281 -5.820312 41.707031 -7.113281 C 52.378906 -8.40625 60.136719 -16.164062 62.078125 -27.160156 C 63.046875 -32.65625 63.046875 -38.476562 63.046875 -43.972656 L 63.046875 -45.910156 C 63.371094 -58.195312 63.371094 -70.484375 63.371094 -82.445312 L 63.371094 -98.613281 L 70.804688 -103.785156 L 72.746094 -100.550781 C 73.070312 -99.582031 73.714844 -98.933594 74.039062 -97.964844 C 74.6875 -96.671875 75.65625 -95.054688 76.625 -94.085938 C 87.296875 -81.476562 97.964844 -68.867188 108.957031 -56.257812 L 118.980469 -44.292969 C 133.851562 -26.835938 148.726562 -15.519531 165.539062 -8.730469 C 182.027344 -1.941406 196.898438 -5.496094 204.660156 -18.105469 C 211.773438 -30.714844 208.214844 -45.585938 194.960938 -56.582031 Z M 194.960938 -56.582031 "/></g></g></g><g fill="#2b2b2b" fill-opacity="1"><g transform="translate(220.502126, 349.702166)"><g><path d="M 141.9375 -247.660156 C 135.46875 -248.953125 128.355469 -247.660156 121.566406 -246.691406 C 67.898438 -239.902344 35.242188 -208.214844 18.105469 -158.425781 C 0.648438 -108.3125 17.136719 -24.570312 98.289062 -8.082031 C 103.785156 -6.789062 108.957031 -5.820312 114.132812 -5.171875 C 147.757812 -1.292969 176.207031 -10.667969 198.515625 -36.535156 C 205.953125 -45.265625 213.390625 -53.992188 220.503906 -62.722656 C 238.285156 -83.738281 244.429688 -109.28125 246.691406 -133.207031 C 242.164062 -206.601562 203.691406 -233.113281 141.9375 -247.660156 Z M 166.832031 -99.90625 C 162.953125 -93.4375 157.132812 -88.589844 151.960938 -82.769531 C 129.972656 -58.195312 88.589844 -67.25 77.273438 -98.933594 C 67.25 -126.09375 74.6875 -149.695312 89.558594 -171.679688 C 100.226562 -187.847656 110.898438 -189.464844 127.710938 -180.734375 C 135.46875 -176.855469 143.554688 -173.296875 151.960938 -169.742188 C 171.359375 -161.980469 178.472656 -151.636719 181.058594 -129.972656 C 176.207031 -119.949219 172.328125 -109.28125 166.832031 -99.90625 Z M 110.25 -276.113281 C 114.132812 -271.585938 120.597656 -269 123.507812 -267.382812 C 139.027344 -267.382812 144.847656 -277.40625 138.378906 -289.371094 C 130.621094 -303.273438 121.566406 -316.851562 112.515625 -330.105469 C 106.046875 -339.484375 96.347656 -341.101562 88.265625 -335.925781 C 80.183594 -330.753906 78.242188 -320.730469 84.710938 -310.707031 C 92.792969 -299.070312 100.875 -287.105469 110.25 -276.113281 Z M 110.25 -276.113281 "/></g></g></g><g fill="#2b2b2b" fill-opacity="1"><g transform="translate(479.155682, 349.702166)"><g><path d="M 156.164062 -117.039062 C 154.546875 -129.003906 143.230469 -137.734375 128.679688 -138.378906 C 118.980469 -139.027344 108.632812 -138.378906 98.933594 -137.734375 L 93.761719 -137.410156 C 87.296875 -137.085938 80.828125 -136.441406 74.039062 -135.46875 C 71.128906 -135.148438 68.21875 -134.824219 64.988281 -134.5 L 61.429688 -134.175781 L 58.519531 -199.808594 L 78.890625 -199.808594 C 91.175781 -200.132812 103.136719 -200.132812 115.101562 -199.808594 C 134.175781 -199.164062 148.078125 -208.539062 149.050781 -222.117188 C 149.695312 -227.9375 147.757812 -233.757812 143.554688 -238.609375 C 138.054688 -245.074219 129.328125 -249.277344 119.949219 -249.925781 C 113.808594 -250.246094 107.664062 -250.246094 101.523438 -250.246094 C 85.355469 -250.246094 70.160156 -249.277344 57.550781 -247.984375 C 47.203125 -247.015625 35.886719 -244.105469 23.925781 -238.929688 C 18.105469 -236.667969 14.550781 -233.113281 12.933594 -228.585938 C 10.992188 -223.734375 11.640625 -217.59375 14.871094 -210.804688 C 16.8125 -206.921875 18.105469 -201.75 17.78125 -197.222656 C 17.460938 -175.882812 17.136719 -154.546875 16.8125 -133.207031 C 16.164062 -105.402344 15.519531 -77.597656 15.195312 -49.789062 C 14.871094 -40.414062 15.84375 -30.070312 17.78125 -18.429688 C 19.722656 -6.144531 26.1875 1.292969 35.566406 1.941406 C 45.265625 2.585938 54.640625 -5.171875 57.550781 -15.84375 C 60.136719 -25.867188 60.785156 -36.859375 61.429688 -47.527344 L 61.753906 -51.085938 C 62.398438 -57.550781 62.078125 -64.015625 62.078125 -70.484375 C 62.078125 -73.070312 62.078125 -75.980469 62.078125 -78.566406 L 62.078125 -80.828125 L 64.015625 -81.800781 C 64.664062 -82.121094 65.308594 -82.445312 65.632812 -82.769531 C 66.601562 -83.09375 67.574219 -83.738281 68.867188 -83.738281 C 73.070312 -83.738281 77.273438 -83.414062 81.476562 -83.414062 C 89.882812 -83.414062 98.613281 -83.09375 107.019531 -83.414062 C 116.070312 -84.0625 126.417969 -85.03125 135.46875 -87.941406 C 150.019531 -92.46875 158.101562 -103.785156 156.164062 -117.039062 Z M 156.164062 -117.039062 "/></g></g></g><g fill="#2b2b2b" fill-opacity="1"><g transform="translate(647.603818, 349.702166)"><g><path d="M 141.613281 -247.660156 C 135.46875 -248.953125 128.355469 -247.660156 121.566406 -246.691406 C 67.898438 -239.902344 35.242188 -208.214844 18.105469 -158.425781 C 0.648438 -108.3125 17.136719 -24.570312 98.289062 -8.082031 C 103.785156 -6.789062 108.957031 -5.820312 114.132812 -5.171875 C 147.757812 -1.292969 176.207031 -10.667969 198.515625 -36.535156 C 205.953125 -45.265625 213.390625 -53.992188 220.503906 -62.722656 C 238.285156 -83.738281 244.429688 -109.28125 246.691406 -133.207031 C 242.164062 -206.601562 203.691406 -233.113281 141.613281 -247.660156 Z M 166.832031 -99.90625 C 162.953125 -93.4375 157.132812 -88.589844 151.960938 -82.769531 C 129.648438 -58.195312 88.589844 -67.25 77.273438 -98.933594 C 67.25 -126.09375 74.6875 -149.695312 89.558594 -171.679688 C 100.226562 -187.847656 110.898438 -189.464844 127.710938 -180.734375 C 135.46875 -176.855469 143.554688 -173.296875 151.960938 -169.742188 C 171.359375 -161.980469 178.472656 -151.636719 181.058594 -129.972656 C 176.207031 -119.949219 172.328125 -109.28125 166.832031 -99.90625 Z M 132.238281 -267.382812 C 135.148438 -269 141.9375 -271.585938 145.816406 -276.113281 C 154.867188 -287.105469 163.273438 -299.070312 171.035156 -310.707031 C 177.824219 -320.730469 175.882812 -330.753906 167.476562 -335.925781 C 159.71875 -341.101562 149.695312 -339.484375 143.554688 -330.105469 C 134.175781 -316.851562 125.445312 -303.273438 117.6875 -289.371094 C 111.222656 -277.40625 117.039062 -267.382812 132.238281 -267.382812 Z M 132.238281 -267.382812 "/></g></g></g></svg>